<?xml version="1.0" standalone="no"?>
<!DOCTYPE svg PUBLIC "-//W3C//DTD SVG 20010904//EN"
 "http://www.w3.org/TR/2001/REC-SVG-20010904/DTD/svg10.dtd">
<svg version="1.0" xmlns="http://www.w3.org/2000/svg"
 width="128.000000pt" height="128.000000pt" viewBox="0 0 128.000000 128.000000"
 preserveAspectRatio="xMidYMid meet">
<metadata>
Created by potrace 1.16, written by Peter Selinger 2001-2019
</metadata>
<g transform="translate(0.000000,128.000000) scale(0.100000,-0.100000)"
fill="#000000" stroke="none">
<path d="M345 980 l300 -300 292 292 c161 161 293 296 293 300 0 5 -267 8
-592 8 l-593 0 300 -300z"/>
<path d="M0 642 c0 -325 3 -592 8 -592 4 0 139 132 300 293 l292 292 -300 300
-300 300 0 -593z"/>
<path d="M340 295 l-295 -295 595 0 595 0 -295 295 c-162 162 -297 295 -300
295 -3 0 -138 -133 -300 -295z"/>
</g>
</svg>
